<?xml version="1.0" standalone="no"?>
<!DOCTYPE svg PUBLIC "-//W3C//DTD SVG 1.1//EN" "http://www.w3.org/Graphics/SVG/1.1/DTD/svg11.dtd">
<svg width="800" height="600" version="1.1" xmlns="http://www.w3.org/2000/svg">
<rect width="800" height="600" x="0" y="0" style="fill:rgb(238,238,238);stroke:none"/>
<rect width="800" height="600" x="0" y="0" style="fill:rgb(255,255,255);stroke:none"/>
<text x="2" y="566" fill="rgb(0,0,0)" font-family="Arial" font-size="12">0</text>
<text x="2" y="485" fill="rgb(0,0,0)" font-family="Arial" font-size="12">100000</text>
<text x="2" y="403" fill="rgb(0,0,0)" font-family="Arial" font-size="12">200000</text>
<text x="2" y="322" fill="rgb(0,0,0)" font-family="Arial" font-size="12">300000</text>
<text x="2" y="240" fill="rgb(0,0,0)" font-family="Arial" font-size="12">400000</text>
<text x="2" y="159" fill="rgb(0,0,0)" font-family="Arial" font-size="12">500000</text>
<text x="2" y="77" fill="rgb(0,0,0)" font-family="Arial" font-size="12">600000</text>
<text x="282" y="30" fill="rgb(0,0,0)" font-family="Arial" font-size="12">Quality score distribution over all sequences</text>
<line x1="53" y1="560" x2="790" y2="560" stroke="rgb(0,0,0)" stroke-width="1"/>
<line x1="53" y1="560" x2="53" y2="40" stroke="rgb(0,0,0)" stroke-width="1"/>
<text x="281" y="595" fill="rgb(0,0,0)" font-family="Arial" font-size="12">Mean Sequence Quality (Phred Score)</text>
<text x="106" y="575" fill="rgb(0,0,0)" font-family="Arial" font-size="12">27</text>
<rect width="122" height="520" x="175" y="40" style="fill:rgb(230,230,230);stroke:none"/>
<text x="228" y="575" fill="rgb(0,0,0)" font-family="Arial" font-size="12">28</text>
<text x="350" y="575" fill="rgb(0,0,0)" font-family="Arial" font-size="12">29</text>
<rect width="122" height="520" x="419" y="40" style="fill:rgb(230,230,230);stroke:none"/>
<text x="472" y="575" fill="rgb(0,0,0)" font-family="Arial" font-size="12">30</text>
<text x="594" y="575" fill="rgb(0,0,0)" font-family="Arial" font-size="12">31</text>
<rect width="122" height="520" x="663" y="40" style="fill:rgb(230,230,230);stroke:none"/>
<text x="716" y="575" fill="rgb(0,0,0)" font-family="Arial" font-size="12">32</text>
<line x1="53" y1="560" x2="790" y2="560" stroke="rgb(180,180,180)" stroke-width="1"/>
<line x1="53" y1="479" x2="790" y2="479" stroke="rgb(180,180,180)" stroke-width="1"/>
<line x1="53" y1="397" x2="790" y2="397" stroke="rgb(180,180,180)" stroke-width="1"/>
<line x1="53" y1="316" x2="790" y2="316" stroke="rgb(180,180,180)" stroke-width="1"/>
<line x1="53" y1="234" x2="790" y2="234" stroke="rgb(180,180,180)" stroke-width="1"/>
<line x1="53" y1="153" x2="790" y2="153" stroke="rgb(180,180,180)" stroke-width="1"/>
<line x1="53" y1="71" x2="790" y2="71" stroke="rgb(180,180,180)" stroke-width="1"/>
<line x1="114" y1="560" x2="236" y2="560" stroke="rgb(136,34,85)" stroke-width="1"/>
<line x1="236" y1="560" x2="358" y2="536" stroke="rgb(136,34,85)" stroke-width="1"/>
<line x1="358" y1="536" x2="480" y2="237" stroke="rgb(136,34,85)" stroke-width="1"/>
<line x1="480" y1="237" x2="602" y2="40" stroke="rgb(136,34,85)" stroke-width="1"/>
<line x1="602" y1="40" x2="724" y2="552" stroke="rgb(136,34,85)" stroke-width="1"/>
<rect width="183" height="23" x="607" y="40" style="fill:rgb(255,255,255);stroke:none"/>
<rect width="183" height="23" x="607" y="40" rx="0" ry="0" style="fill:none;stroke-width:1;stroke:rgb(192,192,192)"/>
<text x="610" y="55" fill="rgb(136,34,85)" font-family="Arial" font-size="12" font-weight="bold">Average Quality per read</text>
</svg>
